Coordinates
version=1
nRows=26
nColumns=30
inDegrees=yes

Units are S.I. units (second, meters, Newtons, ...)
Angles are in degrees.

endheader
time	floatyaw	floatroll	floatpitch	floatx	floaty	floatz	pro_sup_l	deviation_l	flexion_l	cmc_flexion_l	cmc_abduction_l	mp_flexion_l	ip_flexion_l	2mcp_flexion_l	2mcp_abduction_l	2pm_flexion_l	2md_flexion_l	3mcp_flexion_l	3mcp_abduction_l	3pm_flexion_l	3md_flexion_l	4mcp_flexion_l	4mcp_abduction_l	4pm_flexion_l	4md_flexion_l	5mcp_flexion_l	5mcp_abduction_l	5pm_flexion_l	5md_flexion_l
-0.995000	-2.462414	-4.584149	94.174208	-0.008718	-0.267260	-0.004641	90.958834	0.399664	-1.913057	26.104083	2.140883	-18.465049	-31.665289	18.955230	6.257199	32.311257	20.592837	8.889498	4.477562	34.821521	21.616850	-1.950209	-3.888760	51.590462	33.023438	-21.762412	-8.604307	62.241550	50.259537
-0.985000	-2.462414	-4.584149	94.174208	-0.008718	-0.267261	-0.004642	90.963422	0.400995	-1.922411	26.129759	2.139220	-18.475489	-31.698716	18.978331	6.258646	32.313199	20.582312	8.928279	4.472810	34.796776	21.595260	-1.945606	-3.878639	51.612445	33.026357	-21.748927	-8.620689	62.219043	50.254803
-0.975000	-2.462414	-4.584149	94.174208	-0.008718	-0.267264	-0.004643	90.963704	0.402007	-1.932666	26.146381	2.146035	-18.485652	-31.717884	19.013473	6.257538	32.307004	20.560553	8.962590	4.467841	34.780563	21.575026	-1.943963	-3.869767	51.638793	33.029847	-21.726459	-8.625449	62.192142	50.257482
-0.965000	-2.462414	-4.584149	94.174208	-0.008718	-0.267269	-0.004643	90.960262	0.402043	-1.942238	26.151794	2.158519	-18.492851	-31.721600	19.054982	6.254345	32.290594	20.532256	8.989286	4.462576	34.771171	21.557670	-1.947279	-3.863589	51.665411	33.032702	-21.701073	-8.618314	62.163502	50.265424
-0.955000	-2.462414	-4.584149	94.174208	-0.008719	-0.267275	-0.004640	90.955255	0.401393	-1.949692	26.146023	2.171855	-18.494426	-31.711029	19.096350	6.249884	32.264379	20.504282	9.008243	4.457435	34.764696	21.544334	-1.954282	-3.860799	51.687876	33.032877	-21.679601	-8.602852	62.139460	50.272151
-0.945000	-2.462414	-4.584149	94.174208	-0.008719	-0.267277	-0.004639	90.951104	0.401341	-1.953804	26.130159	2.181921	-18.488823	-31.687353	19.131527	6.244892	32.232675	20.483699	9.020683	4.452964	34.758664	21.536136	-1.961653	-3.861320	51.703647	33.028487	-21.667160	-8.584673	62.128620	50.270603
-0.935000	-2.462414	-4.584149	94.174208	-0.008715	-0.267274	-0.004643	90.949515	0.403527	-1.953996	26.106909	2.186826	-18.476906	-31.652751	19.155816	6.239917	32.203693	20.475150	9.027245	4.449575	34.754594	21.534042	-1.966289	-3.864695	51.713212	33.018789	-21.665133	-8.569137	62.137785	50.257639
-0.925000	-2.462414	-4.584149	94.174208	-0.008706	-0.267264	-0.004657	90.951096	0.408864	-1.950877	26.081579	2.187201	-18.462435	-31.613004	19.166646	6.235552	32.187151	20.478787	9.027428	4.447599	34.757345	21.538228	-1.967025	-3.870476	51.719354	33.004746	-21.670620	-8.559672	62.167099	50.236538
-0.915000	-2.462414	-4.584149	94.174208	-0.008692	-0.267250	-0.004676	90.955307	0.416617	-1.946369	26.061321	2.185888	-18.450940	-31.577966	19.164417	6.232661	32.189954	20.489909	9.020867	4.447538	34.771287	21.547325	-1.964733	-3.878283	51.724889	32.988864	-21.677813	-8.557260	62.207431	50.215916
-0.905000	-2.462414	-4.584149	94.174208	-0.008678	-0.267237	-0.004694	90.960486	0.424289	-1.942952	26.051928	2.187214	-18.447173	-31.557826	19.152748	6.232221	32.212261	20.500856	9.008947	4.450140	34.796114	21.558222	-1.961197	-3.887569	51.730395	32.974302	-21.680898	-8.560821	62.242304	50.205730
-0.895000	-2.462414	-4.584149	94.174208	-0.008667	-0.267231	-0.004704	90.964078	0.428537	-1.942261	26.054058	2.195493	-18.452473	-31.557087	19.137222	6.234688	32.246699	20.504488	8.994828	4.456104	34.825670	21.566971	-1.958171	-3.897408	51.733709	32.963653	-21.677208	-8.567881	62.254104	50.212546
-0.885000	-2.462414	-4.584149	94.174208	-0.008664	-0.267232	-0.004700	90.963372	0.426688	-1.943936	26.061995	2.212837	-18.463768	-31.570838	19.122877	6.239347	32.281508	20.497472	8.981607	4.465530	34.850758	21.570420	-1.957381	-3.906576	51.731560	32.958063	-21.668837	-8.575238	62.231676	50.236326
-0.875000	-2.462414	-4.584149	94.174208	-0.008671	-0.267238	-0.004683	90.956690	0.418093	-1.945667	26.066391	2.237265	-18.474983	-31.586460	19.111962	6.244230	32.305809	20.481420	8.970294	4.477498	34.863823	21.567479	-1.960938	-3.913947	51.722073	32.957092	-21.661630	-8.579650	62.175387	50.270155
-0.865000	-2.462414	-4.584149	94.174208	-0.008687	-0.267245	-0.004656	90.944549	0.404602	-1.944508	26.059378	2.262514	-18.480013	-31.589977	19.103425	6.246871	32.314116	20.461292	8.959415	4.490128	34.862453	21.559142	-1.971119	-3.918986	51.706383	32.959251	-21.662006	-8.578682	62.097054	50.303078
-0.855000	-2.462414	-4.584149	94.174208	-0.008708	-0.267250	-0.004626	90.930089	0.389953	-1.938685	26.038776	2.280125	-18.475412	-31.573204	19.094319	6.245555	32.308006	20.442405	8.946560	4.501120	34.849893	21.547483	-1.989086	-3.921998	51.688345	32.962817	-21.673266	-8.571580	62.014905	50.324607
-0.845000	-2.462414	-4.584149	94.174208	-0.008731	-0.267252	-0.004600	90.918375	0.378390	-1.928795	26.008978	2.283072	-18.461377	-31.537722	19.082114	6.240297	32.294488	20.428125	8.930672	4.508498	34.832764	21.534607	-2.013185	-3.923913	51.672559	32.966457	-21.693264	-8.559805	61.946343	50.328462
-0.835000	-2.462414	-4.584149	94.174208	-0.008751	-0.267248	-0.004581	90.914659	0.373080	-1.917697	25.978422	2.269161	-18.440958	-31.493909	19.066599	6.232977	32.282027	20.419398	8.913423	4.511195	34.817569	21.522209	-2.038111	-3.925653	51.661911	32.969298	-21.714683	-8.546717	61.902132	50.313666
-0.825000	-2.462414	-4.584149	94.174208	-0.008766	-0.267241	-0.004571	90.922118	0.374961	-1.909156	25.955458	2.242514	-18.418455	-31.455993	19.050471	6.226553	32.276221	20.415552	8.898749	4.509250	34.807971	21.511598	-2.056070	-3.927490	51.656121	32.970495	-21.728087	-8.536235	61.884365	50.283110
-0.815000	-2.462414	-4.584149	94.174208	-0.008772	-0.267230	-0.004566	90.939966	0.382412	-1.905949	25.944829	2.212366	-18.398074	-31.435773	19.038450	6.223775	32.277251	20.415152	8.890755	4.503586	34.804113	21.503678	-2.059938	-3.928855	51.652307	32.968849	-21.726539	-8.531030	61.888305	50.241419
-0.805000	-2.462414	-4.584149	94.174208	-0.008772	-0.267218	-0.004565	90.963020	0.391973	-1.908469	25.946207	2.189645	-18.383134	-31.437767	19.035353	6.226012	32.280336	20.416365	8.891296	4.495570	34.803930	21.498875	-2.046950	-3.928776	51.647215	32.963137	-21.709395	-8.531354	61.906259	50.193784
-0.795000	-2.462414	-4.584149	94.174208	-0.008768	-0.267204	-0.004565	90.983379	0.399870	-1.914484	25.954897	2.182785	-18.375463	-31.457505	19.043895	6.232699	32.278842	20.417294	8.898667	4.486589	34.805293	21.497265	-2.020683	-3.926658	51.639638	32.953088	-21.683004	-8.535349	61.931184	50.145802
-0.785000	-2.462414	-4.584149	94.174208	-0.008760	-0.267188	-0.004565	90.993698	0.403691	-1.920122	25.963930	2.194551	-18.374746	-31.483277	19.063167	6.241623	32.268238	20.416731	8.908152	4.477830	34.807603	21.499005	-1.989857	-3.922850	51.631411	32.940121	-21.657685	-8.540526	61.958545	50.103215
-0.775000	-2.462414	-4.584149	94.174208	-0.008751	-0.267172	-0.004567	90.990460	0.403349	-1.921546	25.966758	2.221271	-18.378400	-31.500770	19.088602	6.249910	32.248682	20.415063	8.914106	4.470231	34.811976	21.504714	-1.964316	-3.918555	51.626288	32.927082	-21.642573	-8.545366	61.986263	50.070673
-0.765000	-2.462414	-4.584149	94.174208	-0.008741	-0.267152	-0.004575	90.975516	0.400810	-1.916608	25.960086	2.254681	-18.382801	-31.499306	19.113740	6.255280	32.224714	20.414564	8.912595	4.464484	34.819878	21.515445	-1.950156	-3.915107	51.627253	32.917068	-21.641064	-8.550054	62.013420	50.049838
-0.755000	-2.462414	-4.584149	94.174208	-0.008730	-0.267129	-0.004591	90.955040	0.398741	-1.905774	25.945952	2.285464	-18.385632	-31.477345	19.133132	6.256901	32.202192	20.418536	8.903399	4.461001	34.830893	21.532174	-1.946638	-3.913083	51.633694	32.912146	-21.649378	-8.556049	62.038648	50.038216
-0.745000	-2.462414	-4.584149	94.174208	-0.008718	-0.267103	-0.004612	90.936387	0.398869	-1.891828	25.931428	2.306849	-18.387596	-31.443959	19.144859	6.255340	32.184362	20.429470	8.890314	4.459807	34.841161	21.554982	-1.946874	-3.911934	51.640351	32.912667	-21.659245	-8.564785	62.059152	50.030058
